<svg xmlns="http://www.w3.org/2000/svg" width="69" height="62" viewBox="0 0 69 62">
  <defs>
    <style>
      .cls-1 {
        fill: #636363;
        fill-rule: evenodd;
      }
    </style>
  </defs>
  <path id="icon_award" class="cls-1" d="M517.259,6700.25c1.168-.62,2.632-3.28,2.632-3.28s-3.064-.27-4.232.35c-0.114.06-.207,0.16-0.317,0.23a30.178,30.178,0,0,0,.309-3.27,3.044,3.044,0,0,0,2.552-.8c0.994-.86,1.8-3.78,1.8-3.78s-3.043.43-4.035,1.3a3.045,3.045,0,0,0-.317.36,29.106,29.106,0,0,0-.413-3.38,3.12,3.12,0,0,0,2.268-1.36c0.769-1.06.879-4.09,0.879-4.09s-2.866,1.1-3.631,2.17a3.426,3.426,0,0,0-.191.36c-0.252-.88-0.546-1.73-0.876-2.57a3.008,3.008,0,0,0,1.989-1.76c0.546-1.19.059-4.17,0.059-4.17s-2.594,1.62-3.138,2.81a3.187,3.187,0,0,0-.125.42,29.349,29.349,0,0,0-1.519-2.61,3.109,3.109,0,0,0,1.583-2.02c0.351-1.26-.6-4.13-0.6-4.13s-2.307,2-2.656,3.26a3.741,3.741,0,0,0-.066.49,29.167,29.167,0,0,0-2.276-2.54,3.072,3.072,0,0,0,1.113-2.35c0.051-1.3-1.541-3.89-1.541-3.89s-1.782,2.47-1.832,3.77a3.079,3.079,0,0,0,.017.45c-0.667-.54-1.35-1.06-2.061-1.55a3.236,3.236,0,0,0-1.439-1.75c-1.137-.68-4.207-0.56-4.207-0.56s1.325,2.72,2.461,3.4a3.571,3.571,0,0,0,1.608.48c0.544,0.36,1.079.74,1.594,1.14a12.506,12.506,0,0,0-3.655,1.49s2.506,1.75,3.833,1.8a3.129,3.129,0,0,0,2.488-.97c0.546,0.54,1.062,1.11,1.561,1.69a13.218,13.218,0,0,0-3.847.65s2.032,2.26,3.314,2.61a3.1,3.1,0,0,0,2.666-.42c0.407,0.61.783,1.24,1.135,1.89a12.4,12.4,0,0,0-4,.02s1.651,2.55,2.861,3.08a3.156,3.156,0,0,0,2.618.06c0.218,0.56.417,1.13,0.6,1.7a12.452,12.452,0,0,0-3.952-.76s1.121,2.82,2.2,3.57a3.123,3.123,0,0,0,2.588.55c0.138,0.76.239,1.53,0.316,2.31a12.722,12.722,0,0,0-3.61-1.56s0.444,2.99,1.327,3.97a3.173,3.173,0,0,0,2.359,1.11c-0.028.77-.076,1.55-0.169,2.31a12.014,12.014,0,0,0-3.206-2.42s-0.269,3.01.362,4.16a2.892,2.892,0,0,0,2.209,1.6c-0.17.68-.351,1.35-0.572,2-0.554-1.2-2.958-2.88-2.958-2.88s-0.626,2.96-.138,4.18a3.127,3.127,0,0,0,1.812,1.83c-0.29.6-.586,1.2-0.916,1.77-0.316-1.29-2.362-3.37-2.362-3.37s-1.176,2.79-.929,4.07a3.117,3.117,0,0,0,1.41,2.13c-0.424.56-.857,1.12-1.325,1.65-0.021-1.32-1.661-3.81-1.661-3.81s-1.7,2.52-1.71,3.82a3.078,3.078,0,0,0,.993,2.38c-0.512.46-1.035,0.9-1.581,1.33,0-.03.012-0.05,0.012-0.07,0.161-1.3-1.2-4.01-1.2-4.01s-1.987,2.3-2.146,3.6a3.1,3.1,0,0,0,.607,2.33c-0.671.4-1.354,0.78-2.059,1.13a3.645,3.645,0,0,0,.172-0.58c0.254-1.28-.91-4.08-0.91-4.08s-2.148,2.16-2.4,3.44a3.094,3.094,0,0,0,.445,2.37,29.077,29.077,0,0,1-3.833,1.11,6.164,6.164,0,0,0-11.77,0,29,29,0,0,1-3.831-1.11,3.094,3.094,0,0,0,.442-2.37c-0.251-1.28-2.4-3.44-2.4-3.44s-1.166,2.8-.91,4.08a3.551,3.551,0,0,0,.174.58c-0.707-.35-1.391-0.73-2.061-1.13a3.118,3.118,0,0,0,.609-2.33c-0.161-1.3-2.147-3.6-2.147-3.6s-1.361,2.71-1.2,4.01c0,0.02.011,0.04,0.013,0.07-0.544-.43-1.068-0.87-1.579-1.33a3.1,3.1,0,0,0,.992-2.38c-0.007-1.3-1.71-3.82-1.71-3.82s-1.641,2.49-1.662,3.81c-0.463-.53-0.9-1.09-1.323-1.65a3.124,3.124,0,0,0,1.408-2.13c0.251-1.28-.928-4.07-0.928-4.07s-2.047,2.09-2.362,3.37c-0.329-.58-0.628-1.17-0.916-1.77a3.12,3.12,0,0,0,1.811-1.83c0.49-1.22-.136-4.18-0.136-4.18s-2.406,1.68-2.96,2.88c-0.221-.65-0.4-1.32-0.573-2a2.892,2.892,0,0,0,2.21-1.6c0.631-1.15.362-4.16,0.362-4.16a12.014,12.014,0,0,0-3.207,2.42c-0.09-.76-0.14-1.53-0.168-2.31a3.175,3.175,0,0,0,2.36-1.11c0.881-.98,1.326-3.97,1.326-3.97a12.742,12.742,0,0,0-3.608,1.56q0.107-1.17.314-2.31a3.121,3.121,0,0,0,2.588-.55c1.081-.75,2.2-3.57,2.2-3.57a12.474,12.474,0,0,0-3.954.76c0.183-.58.381-1.14,0.6-1.7a3.157,3.157,0,0,0,2.618-.06c1.211-.53,2.86-3.08,2.86-3.08a12.562,12.562,0,0,0-4.01-.01c0.355-.65.732-1.28,1.137-1.9a3.034,3.034,0,0,0,2.666.42c1.28-.34,3.314-2.61,3.314-2.61a12.99,12.99,0,0,0-3.85-.64c0.5-.58,1.016-1.15,1.563-1.69a3.09,3.09,0,0,0,2.489.96c1.324-.04,3.831-1.8,3.831-1.8a12.773,12.773,0,0,0-3.655-1.49c0.515-.39,1.05-0.77,1.594-1.13a3.705,3.705,0,0,0,1.609-.48c1.135-.68,2.461-3.4,2.461-3.4s-3.071-.12-4.206.55a3.242,3.242,0,0,0-1.441,1.76c-0.711.48-1.4,1-2.059,1.54a3.668,3.668,0,0,0,.016-0.44c-0.05-1.31-1.832-3.77-1.832-3.77s-1.594,2.58-1.544,3.88a3.06,3.06,0,0,0,1.114,2.35,31.8,31.8,0,0,0-2.278,2.55,3.205,3.205,0,0,0-.065-0.49c-0.349-1.26-2.654-3.27-2.654-3.27s-0.953,2.88-.6,4.14a3.128,3.128,0,0,0,1.586,2.02,28.877,28.877,0,0,0-1.52,2.61,2.68,2.68,0,0,0-.126-0.42c-0.543-1.19-3.139-2.82-3.139-2.82s-0.485,2.99.06,4.18a3.048,3.048,0,0,0,1.99,1.76c-0.327.84-.625,1.69-0.875,2.56a3.846,3.846,0,0,0-.191-0.36c-0.767-1.06-3.632-2.16-3.632-2.16s0.109,3.02.878,4.08a3.089,3.089,0,0,0,2.269,1.36,28.679,28.679,0,0,0-.414,3.38,4.676,4.676,0,0,0-.316-0.36c-0.993-.87-4.036-1.3-4.036-1.3s0.8,2.92,1.8,3.78a3.044,3.044,0,0,0,2.553.8,29.442,29.442,0,0,0,.307,3.27c-0.108-.07-0.2-0.16-0.317-0.23-1.167-.62-4.231-0.35-4.231-0.35s1.464,2.66,2.633,3.28a3.263,3.263,0,0,0,2.518.27c0.217,0.84.463,1.66,0.751,2.47a3.141,3.141,0,0,0-.282-0.16c-1.232-.48-4.242.14-4.242,0.14s1.77,2.47,3.006,2.95a3.063,3.063,0,0,0,2.688-.12c0.393,0.82.815,1.62,1.277,2.4-0.1-.03-0.2-0.06-0.3-0.08-1.3-.24-4.143.92-4.143,0.92s2.208,2.1,3.512,2.34a3.02,3.02,0,0,0,2.633-.63c0.557,0.75,1.144,1.47,1.769,2.16-0.085,0-.167-0.01-0.252-0.01-1.326.01-3.885,1.68-3.885,1.68s2.578,1.65,3.9,1.64a3.047,3.047,0,0,0,2.453-1.08c0.6,0.54,1.212,1.06,1.851,1.56a0.965,0.965,0,0,0-.169-0.01c-1.318.16-3.66,2.12-3.66,2.12s2.754,1.34,4.069,1.18a2.916,2.916,0,0,0,2.371-1.5c0.511,0.31,1.014.64,1.545,0.92a13.547,13.547,0,0,0-3.062,2.22s2.843,1.14,4.143.89a2.95,2.95,0,0,0,2.238-1.61,30.8,30.8,0,0,0,4.887,1.45,6.156,6.156,0,0,0,12.269,0,30.852,30.852,0,0,0,4.886-1.45,2.948,2.948,0,0,0,2.236,1.61c1.3,0.25,4.148-.89,4.148-0.89a13.5,13.5,0,0,0-3.06-2.23c0.529-.28,1.032-0.61,1.545-0.92a2.914,2.914,0,0,0,2.37,1.5c1.316,0.16,4.069-1.18,4.069-1.18s-2.343-1.96-3.659-2.12a0.954,0.954,0,0,1-.169,0c0.639-.49,1.253-1.01,1.849-1.55a3.053,3.053,0,0,0,2.455,1.08c1.325,0.01,3.9-1.63,3.9-1.63s-2.558-1.68-3.885-1.69a2.105,2.105,0,0,0-.25.02c0.622-.7,1.21-1.42,1.769-2.17a3.018,3.018,0,0,0,2.632.64c1.3-.25,3.513-2.35,3.513-2.35s-2.842-1.16-4.143-.92a3.043,3.043,0,0,0-.3.08c0.463-.78.886-1.57,1.276-2.4a3.032,3.032,0,0,0,2.689.12c1.236-.47,3.007-2.95,3.007-2.95s-3.011-.61-4.245-0.13a3.127,3.127,0,0,0-.279.15c0.288-.81.533-1.63,0.749-2.47A3.214,3.214,0,0,0,517.259,6700.25Z" transform="translate(-451 -6666)"/>
</svg>
