<svg width="75" height="42" viewBox="0 0 75 42" fill="none" xmlns="http://www.w3.org/2000/svg">
<path fill-rule="evenodd" clip-rule="evenodd" d="M51.6416 0.0117428C63.44 0.0117428 73.0046 9.40889 73.0046 21.001C73.0046 32.5927 63.4403 41.9899 51.6416 41.9899C46.6668 41.9971 41.8466 40.2914 38.0188 37.1693C34.3175 40.1932 29.5475 41.9899 24.357 41.9899C12.5587 41.9899 2.99365 32.5927 2.99365 21.001C2.99365 9.40927 12.5587 0.0117428 24.357 0.0117428C29.5472 0.0117428 34.3172 1.80801 38.0188 4.83234C41.8465 1.71004 46.6667 0.00432821 51.6416 0.0117428ZM51.6417 1.55408C62.5735 1.55408 71.4358 10.2612 71.4358 21.0015C71.4358 31.7419 62.5731 40.4483 51.6417 40.4479C46.8975 40.4479 42.5822 38.8171 39.1729 36.083C41.7726 33.6168 43.7575 30.5284 44.8227 27.0375H43.1784C42.148 30.1412 40.3372 32.8798 37.984 35.0766C35.6146 32.8602 33.8414 30.1014 32.823 27.0469H31.1779C32.2282 30.4737 34.1532 33.5796 36.7701 36.0692C33.3699 38.7757 29.0736 40.4479 24.3567 40.4479C13.4253 40.4479 4.56299 31.7415 4.56299 21.0012C4.56299 10.2608 13.4253 1.55371 24.3567 1.55371C29.0736 1.55371 33.3695 3.22665 36.7701 5.93242C34.1534 8.42238 32.2283 11.5285 31.1779 14.9555L32.823 14.9551C33.8419 11.9007 35.615 9.14182 37.984 6.925C40.3372 9.12255 42.148 11.8611 43.1784 14.9648H44.8227C43.7579 11.474 41.7726 8.38519 39.1729 5.919C42.5822 3.18492 46.8975 1.55408 51.6417 1.55408Z" fill="#6E7E90"/>
<path d="M58.2543 18.3596L56.8876 25.5562H58.8994L59.5187 22.2617C60.0815 20.2167 60.9474 20.2275 61.4524 20.2338C61.4793 20.2341 61.5051 20.2344 61.5297 20.2344L62.0713 18.3596C61.0663 18.3596 60.4721 18.7139 60.1634 19.069L59.9825 18.3596H58.2543Z" fill="#6E7E90"/>
<path d="M32.3944 16.5312H30.4027L29.0246 23.3542C28.6408 25.3103 30.1479 25.5867 30.6071 25.5867C31.0667 25.5867 31.6538 25.5111 32.088 25.2354L32.2158 23.7808C31.0667 23.9563 31.0152 23.4548 31.1176 22.9026L31.6792 19.993H32.7005L33.0577 18.4378H31.9856L32.3944 16.5312Z" fill="#6E7E90"/>
<path fill-rule="evenodd" clip-rule="evenodd" d="M36.3013 18.3372C39.7993 18.3372 39.2627 21.1965 39.0333 22.3508H34.6922C34.4697 23.935 35.6675 23.9328 36.4617 23.9314C36.485 23.9314 36.5081 23.9313 36.5307 23.9313C37.3226 23.9313 38.4716 23.8307 38.7777 23.7558L38.4716 25.2354C37.9862 25.4865 36.7605 25.5867 35.9179 25.5614C32.471 25.5614 32.5226 22.3761 32.5988 21.9242C32.6012 21.9103 32.6039 21.8939 32.6069 21.8752C32.7032 21.2836 33.1827 18.3372 36.3013 18.3372ZM37.2968 21.0466H34.8201C35.0503 20.1435 35.6115 19.7418 36.4034 19.7422C37.1948 19.7422 37.4246 20.3439 37.2968 21.0466Z" fill="#6E7E90"/>
<path d="M28.9729 18.5889L28.5136 20.0439C27.9516 19.893 27.0069 19.893 26.5473 19.944C25.8067 20.1445 26.1131 20.8219 26.5215 20.997C26.9303 21.1732 27.569 21.5238 27.9516 21.775C28.3343 22.0007 28.803 22.4788 28.6407 23.531C28.3238 25.5912 26.1445 25.5695 25.5263 25.5633C25.4971 25.563 25.4713 25.5627 25.4494 25.5627C24.7596 25.5627 24.0197 25.5627 23.1005 25.3116L23.3811 23.832C24.2048 24.1018 25.2561 24.0453 25.7681 24.0178C25.8748 24.012 25.9581 24.0075 26.0111 24.0075C26.6793 24.0075 26.7718 23.177 26.2667 22.9289C26.1255 22.8595 25.9812 22.778 25.8211 22.6877C25.5182 22.5167 25.1588 22.3139 24.6576 22.1006C24.1832 21.899 23.6875 21.3483 23.9685 20.0189C24.3296 18.3093 26.6571 18.3124 26.9931 18.3128C26.998 18.3128 27.0025 18.3128 27.0066 18.3128C27.042 18.3128 27.0847 18.3116 27.1341 18.3103C27.4775 18.3007 28.1468 18.2821 28.9729 18.5889Z" fill="#6E7E90"/>
<path d="M17.2538 16.8828L15.5943 25.5624H13.526L14.7008 19.4418L11.9176 25.5624H10.0279L9.49131 19.2913L8.26601 25.5624H6.27466L7.98538 16.8828H11.177L11.5596 22.1509L13.986 16.8828H17.2538Z" fill="#6E7E90"/>
<path fill-rule="evenodd" clip-rule="evenodd" d="M17.4829 20.1188L17.7897 18.564C18.8696 18.3558 19.5278 18.3376 20.0702 18.3226C20.1822 18.3195 20.2891 18.3165 20.3939 18.3121C23.7383 18.3121 23.4073 20.6706 23.2029 21.6486L22.411 25.5616H20.5475L20.2919 25.1607C19.9342 25.4111 19.6536 25.537 18.632 25.5873C17.6103 25.6376 16.3088 24.8854 16.5386 23.4043C17.0276 20.782 19.804 20.8638 20.8486 20.8946C21.003 20.8991 21.1196 20.9026 21.1853 20.896C21.3931 19.9214 20.7875 19.9099 20.1597 19.898C20.093 19.8967 20.026 19.8954 19.9597 19.893C19.438 19.8744 18.565 19.9848 17.9608 20.0611C17.767 20.0856 17.6009 20.1067 17.4829 20.1188ZM20.7263 22.3302C20.7736 22.3387 20.8163 22.3463 20.8539 22.352L20.7007 23.1299C20.5721 23.7827 19.629 24.1989 18.9899 23.9575C18.3259 23.7063 18.5041 22.9541 19.1428 22.5275C19.7092 22.1491 20.3558 22.2643 20.7263 22.3302Z" fill="#6E7E90"/>
<path fill-rule="evenodd" clip-rule="evenodd" d="M48.5311 18.5387C49.1947 18.5387 49.5516 18.5882 50.0628 18.8893L51.3654 17.6102C50.855 17.058 50.2672 16.5155 48.6331 16.4559C47.2553 16.4059 44.8923 17.3944 44.1392 20.0935C43.1187 23.7564 45.3652 25.562 47.4332 25.562C48.5314 25.562 49.1951 25.4115 49.8588 25.1108L49.2713 23.3548C47.2292 24.0318 45.7737 23.0034 46.1055 20.9214C46.3861 19.162 47.8674 18.5387 48.5311 18.5387ZM66.76 18.9306C66.8539 19.0273 66.943 19.1191 67.0425 19.1907L67.5784 16.4316H69.6721L67.936 25.562H65.7918L65.5355 24.9856C65.1274 25.2613 64.4638 25.5374 63.7993 25.562C62.3696 25.562 61.0579 23.5783 61.706 21.3979C62.6246 18.3112 64.2064 18.3262 65.304 18.3367C65.366 18.3373 65.4264 18.3378 65.485 18.3378C66.1845 18.3378 66.4917 18.6543 66.76 18.9306ZM66.1996 20.3694C66.4204 20.6585 66.5322 21.4734 66.3278 22.1254C65.9698 23.0032 65.511 23.5804 64.7699 23.5804C64.0805 23.5804 63.468 22.8024 63.7487 21.7741C64.1783 20.2013 65.5872 19.5668 66.1996 20.3694Z" fill="#6E7E90"/>
<path fill-rule="evenodd" clip-rule="evenodd" d="M51.1865 20.1192L51.4926 18.5644C52.5724 18.3562 53.2307 18.338 53.7731 18.323C53.885 18.3199 53.992 18.317 54.0968 18.3125C57.4416 18.3125 57.1098 20.671 56.9061 21.6491L56.1135 25.562H54.2507L53.9951 25.1611C53.6375 25.4115 53.3569 25.5374 52.3352 25.5877C51.3136 25.638 50.0117 24.8858 50.2419 23.4047C50.7312 20.7824 53.5073 20.8642 54.5517 20.895C54.706 20.8996 54.8225 20.903 54.8882 20.8964C55.0966 19.9218 54.4908 19.9103 53.8627 19.8984C53.7959 19.8971 53.7289 19.8958 53.6625 19.8934C53.1407 19.8748 52.2667 19.9853 51.6627 20.0617C51.4696 20.0862 51.3041 20.1071 51.1865 20.1192ZM54.4291 22.3302C54.4764 22.3387 54.5191 22.3463 54.5567 22.352L54.4035 23.1299C54.2753 23.7827 53.3325 24.1989 52.6931 23.9575C52.0287 23.7063 52.207 22.9541 52.8456 22.5275C53.412 22.1491 54.0586 22.2643 54.4291 22.3302Z" fill="#6E7E90"/>
<path fill-rule="evenodd" clip-rule="evenodd" d="M39.0906 25.5615L40.4437 18.4375H42.1548L42.3334 19.1398C42.6394 18.7881 43.2265 18.4375 44.222 18.4375L43.7115 20.3187C43.2265 20.3187 42.2814 20.1686 41.6948 22.3005L41.0823 25.5615H39.0906Z" fill="#6E7E90"/>
</svg>
