<svg width="75" height="42" viewBox="0 0 75 42" fill="none" xmlns="http://www.w3.org/2000/svg">
<path d="M20.2222 20.9981L20.2222 20.9987C20.2208 30.8161 28.1808 38.7762 37.9953 38.7763L20.2222 20.9981ZM20.2222 20.9981C20.2194 11.1811 28.179 3.22222 37.9985 3.22222C47.8178 3.22222 55.7778 11.1825 55.7778 21C55.7778 30.8156 47.8182 38.7747 37.9954 38.7763L20.2222 20.9981Z" stroke="#6E7E90" stroke-width="2.44444"/>
<path d="M45.4751 16.3452C45.2303 13.8007 43.0336 12.948 40.2576 12.7048V9.17383H38.1095V12.6105C37.5455 12.6105 36.9678 12.6212 36.3947 12.6333V9.17383H34.2466L34.245 12.7017C33.7799 12.7109 33.3223 12.72 32.8768 12.72V12.7093L29.9139 12.7078V15.003C29.9139 15.003 31.501 14.9726 31.4736 15.0015C32.3447 15.0015 32.6275 15.5061 32.7096 15.9424L32.7081 25.6142C32.6701 25.8878 32.5089 26.324 31.9008 26.3255C31.9282 26.3498 30.3395 26.3255 30.3395 26.3255L29.9124 28.8913H32.7096C33.2295 28.8913 33.7418 28.9004 34.2435 28.9034L34.245 32.4739H36.3916V28.9414C36.98 28.9536 37.5501 28.9582 38.108 28.9582L38.1065 32.4739H40.2546V28.911C43.8667 28.7043 46.3979 27.7938 46.7111 24.4012C46.9649 21.6698 45.6803 20.4492 43.6295 19.9567C44.8776 19.3244 45.6575 18.2072 45.4751 16.3452ZM42.4681 23.9786C42.4681 26.6462 37.8997 26.3438 36.4418 26.3438V21.612C37.8997 21.615 42.4681 21.197 42.4681 23.9786ZM41.4677 17.3043C41.4677 19.7318 37.655 19.4475 36.4418 19.449V15.1596C37.6565 15.1596 41.4693 14.7735 41.4677 17.3043Z" fill="#6E7E90"/>
</svg>
