<svg width="75" height="42" viewBox="0 0 75 42" fill="none" xmlns="http://www.w3.org/2000/svg">
<path d="M66.7999 10.3008H62.4999C61.1999 10.3008 60.1999 10.7008 59.5999 12.0008L51.3999 30.7008H57.1999C57.1999 30.7008 58.1999 28.2008 58.3999 27.6008C58.9999 27.6008 64.6999 27.6008 65.4999 27.6008C65.6999 28.3008 66.1999 30.6008 66.1999 30.6008H71.3999L66.7999 10.3008ZM59.9999 23.4008C60.4999 22.2008 62.1999 17.7008 62.1999 17.7008C62.1999 17.8008 62.6999 16.5008 62.8999 15.8008L63.2999 17.6008C63.2999 17.6008 64.3999 22.5008 64.5999 23.5008H59.9999V23.4008Z" fill="#6E7E90"/>
<path d="M51.7999 24C51.7999 28.2 47.9999 31 42.0999 31C39.5999 31 37.1999 30.5 35.8999 29.9L36.6999 25.3L37.3999 25.6C39.1999 26.4 40.3999 26.7 42.5999 26.7C44.1999 26.7 45.8999 26.1 45.8999 24.7C45.8999 23.8 45.1999 23.2 42.9999 22.2C40.8999 21.2 38.0999 19.6 38.0999 16.7C38.0999 12.7 41.9999 10 47.4999 10C49.5999 10 51.3999 10.4 52.4999 10.9L51.6999 15.3L51.2999 14.9C50.2999 14.5 48.9999 14.1 47.0999 14.1C44.9999 14.2 43.9999 15.1 43.9999 15.9C43.9999 16.8 45.1999 17.5 47.0999 18.4C50.2999 19.9 51.7999 21.6 51.7999 24Z" fill="#6E7E90"/>
<path d="M3 10.4996L3.1 10.0996H11.7C12.9 10.0996 13.8 10.4996 14.1 11.7996L16 20.7996C14.1 15.9996 9.7 12.0996 3 10.4996Z" fill="#6E7E90"/>
<path d="M28.1 10.2992L19.4 30.5992H13.5L8.5 13.5992C12.1 15.8992 15.1 19.4992 16.2 21.9992L16.8 24.0992L22.2 10.1992H28.1V10.2992Z" fill="#6E7E90"/>
<path d="M30.3999 10.1992H35.8999L32.3999 30.5992H26.8999L30.3999 10.1992Z" fill="#6E7E90"/>
</svg>
